<svg xmlns="http://www.w3.org/2000/svg" xmlns:svg="http://www.w3.org/2000/svg" id="Calque_1" width="143.3" height="32.7" x="0" y="0" version="1.1" viewBox="0 0 143.3 32.7" xml:space="preserve"><metadata id="metadata40"/><style id="style2" type="text/css">.st0{fill-rule:evenodd;clip-rule:evenodd}</style><path style="clip-rule:evenodd;fill-rule:evenodd" id="path6" d="m 21.1,5 v 0 h 6.6 v 5.7 h -6.6 c -1,0 -1.9,0.8 -1.9,1.9 v 15.1 h -5.7 v -15.1 0 c 0,-1 0.8,-1.9 1.9,-1.9 h 0.5 1.4 c 1,0 1.9,-0.8 1.9,-1.9 V 6.9 C 19.2,5.8 20,5 21.1,5 Z" class="st0"/><polygon style="clip-rule:evenodd;fill-rule:evenodd" id="polygon8" points="8.5 5.7 0 5.7 0 0 8.5 0" class="st0" transform="translate(5,5)"/><path style="clip-rule:evenodd;fill-rule:evenodd" id="path10" d="M 58.9,20.1 V 5 H 53.2 V 22 H 57 c 1,0 1.9,-0.8 1.9,-1.9 z" class="st0"/><path style="clip-rule:evenodd;fill-rule:evenodd" id="path12" d="m 38.1,27.7 v 0 h 3.8 V 22 h -3.8 c -1,0 -1.9,-0.8 -1.9,-1.9 V 5 h -5.7 v 15.1 0 c 0,1 0.8,1.9 1.9,1.9 h 0.5 1.4 c 1,0 1.9,0.8 1.9,1.9 v 1.9 c 0,1 0.8,1.9 1.9,1.9 z" class="st0"/><path style="clip-rule:evenodd;fill-rule:evenodd" id="path14" d="m 49.4,27.7 v 0 h 3.8 V 22 h -3.8 c -1,0 -1.9,-0.8 -1.9,-1.9 V 5 h -5.7 v 15.1 0 c 0,1 0.8,1.9 1.9,1.9 h 0.5 1.4 c 1,0 1.9,0.8 1.9,1.9 v 1.9 c 0,1 0.9,1.9 1.9,1.9 z" class="st0"/><path style="clip-rule:evenodd;fill-rule:evenodd" id="path16" d="m 109.9,12.6 v 15.1 h -5.7 v -17 h 3.8 c 1,0 1.9,0.8 1.9,1.9 z" class="st0"/><path style="clip-rule:evenodd;fill-rule:evenodd" id="path18" d="m 94.8,5 v 0 h 7.6 c 1,0 1.9,0.8 1.9,1.9 v 3.8 h -9.4 c -1,0 -1.9,0.8 -1.9,1.9 v 15.1 h -5.7 v -15.1 0 c 0,-1 0.8,-1.9 1.9,-1.9 h 0.5 1.3 c 1,0 1.9,-0.8 1.9,-1.9 V 6.9 C 92.9,5.8 93.7,5 94.8,5 Z" class="st0"/><rect style="clip-rule:evenodd;fill-rule:evenodd" id="rect20" width="15.8" height="3.8" x="91.2" y="18.2" class="st0"/><path style="clip-rule:evenodd;fill-rule:evenodd" id="path22" d="m 69.3,27.7 v 0 H 84.4 V 22 H 69.3 c -1,0 -1.9,-0.8 -1.9,-1.9 v -1.9 -7.5 h -3.8 c -1,0 -1.9,0.8 -1.9,1.9 v 5.7 1.9 0 c 0,1 0.8,1.9 1.9,1.9 h 0.5 1.4 c 1,0 1.9,0.8 1.9,1.9 v 1.9 c 0,0.9 0.8,1.8 1.9,1.8 z" class="st0"/><path style="clip-rule:evenodd;fill-rule:evenodd" id="path24" d="M 84.4,5 H 69.3 c -1,0 -1.9,0.8 -1.9,1.9 v 3.8 h 17 c 0,0 0,-5.7 0,-5.7 z" class="st0"/><polygon style="clip-rule:evenodd;fill-rule:evenodd" id="polygon26" points="76.5 13.2 60.4 13.2 60.4 9.4 76.5 9.4" class="st0" transform="translate(5,5)"/><path style="clip-rule:evenodd;fill-rule:evenodd" id="path28" d="m 120.3,27.7 v 0 h 10.4 c 1,0 1.9,-0.8 1.9,-1.9 V 22 h -12.3 c -1,0 -1.9,-0.8 -1.9,-1.9 v -1.9 -7.5 h -3.8 c -1,0 -1.9,0.8 -1.9,1.9 v 5.7 1.9 0 c 0,1 0.8,1.9 1.9,1.9 h 0.5 1.4 c 1,0 1.9,0.8 1.9,1.9 v 1.9 c 0,0.9 0.8,1.8 1.9,1.8 z" class="st0"/><path style="clip-rule:evenodd;fill-rule:evenodd" id="path30" d="m 135.4,5 h -15.1 c -1,0 -1.9,0.8 -1.9,1.9 v 3.8 h 17 z" class="st0"/><path style="clip-rule:evenodd;fill-rule:evenodd" id="path32" d="m 132.6,18.2 h -8.5 v -3.8 h 12.3 c 1,0 1.9,0.9 1.9,1.9 v 1.9 3.8 h -5.7 c 0,0 0,-3.8 0,-3.8 z" class="st0"/></svg>